<?xml version="1.0" encoding="utf-8"?>
<!-- Svg Vector Icons : http://www.onlinewebfonts.com/icon -->
<!DOCTYPE svg PUBLIC "-//W3C//DTD SVG 1.1//EN" "http://www.w3.org/Graphics/SVG/1.1/DTD/svg11.dtd">
<svg version="1.1" xmlns="http://www.w3.org/2000/svg" xmlns:xlink="http://www.w3.org/1999/xlink" x="0px" y="0px" viewBox="0 0 1000 1000" enable-background="new 0 0 1000 1000" xml:space="preserve">
<metadata> Svg Vector Icons : http://www.onlinewebfonts.com/icon </metadata>
<g><path d="M235.2,248c-48.6,0-90.4,16.1-125.4,48.2C73.3,330.6,55,373.5,55,424.9c0,34.3,9.9,66.5,30,96.5c17.9,27.9,36.5,45.8,61,53.6v2.1c-24.5,10-35.4,35-35.4,75.1c0,30.7,10.9,53.6,35.4,68.6v2.1c-67.6,22.1-98.6,63.2-98.6,123.3c0,52.2,22.7,90.4,67.1,114.7c35,19.3,80,29,134.3,29c132.2,0,198.5-55.4,198.5-166.2c0-69.3-51-111.9-153.2-127.6c-23.6-3.6-41.4-12.2-53.6-25.7c-9.3-9.3-13.9-18.6-13.9-27.9c0-26.5,14.3-41.8,42.9-46.1c43.6-6.4,79.2-26.6,106.7-60.6c27.5-34,41.3-73.8,41.3-119.6c0-14.3-4.3-29.7-10-46.1c18.6-4.3,31.6-8.2,41.4-11.8l0-110.5c-43.1,17.1-83.2,25.7-117.6,25.7C301.3,256.6,270.2,248,235.2,248z M247,783.1c60.1,0,90.1,18.2,90.1,54.7c0,38.6-27.5,57.9-82.6,57.9c-62.9,0-94.4-18.6-94.4-55.7C160.1,802,189.1,783.1,247,783.1z M239.5,500c-45,0-67.6-24.7-67.6-74c0-52.9,22.5-79.3,67.6-79.3c21.4,0,38.3,8.2,50.4,24.7c10,15,15,32.9,15,53.6C304.9,475,283.1,500,239.5,500z M565.5,10c-20.7,0-38.4,7.9-53.1,23.6c-14.7,15.7-22,34.7-22,56.8c0,21.4,7.3,40,22,55.8c14.6,15.7,32.3,23.6,53.1,23.6c20,0,37.4-7.9,52-23.6c14.6-15.7,22-34.3,22-55.8c0-22.2-7.3-41.1-22-56.8C602.8,17.9,585.5,10,565.5,10z M625.5,255H504.4c1.4,13.7-0.6,34.5-0.6,68.1v333.5c0,34.3,2.1,62,0.6,72.8h121.2c-1.4-15.7-5.2-42.8-5.2-79.2V320.9C620.3,289.5,624.1,268.7,625.5,255z M892.7,626.5c-31.5,0-47-24-47-71.8V356.9h47.7c8.6,0,16.3-0.5,25.9,0.2c9.6,0.7,13.5,0.2,18.4,0.2V255h-92.1v-45.6c0-17.1,2.7-32.8,4.8-42.6H726.2c2.1,9.8,1.9,24.8,1.9,44.8l0,43.4h-53.9v102.4c14.7-2.1,27.8-3.2,37.1-3.2l16.8,1.1v0.6l0,0v193.5c0,60.1,7.6,104,22.6,131.9c20,37.2,55.2,55.8,107.3,55.8c37.2,0,70-7.1,94.5-21.4V608.3C933,620.4,914.9,626.5,892.7,626.5z"/></g>
</svg>