<?xml version="1.0" encoding="utf-8"?>
<!-- Svg Vector Icons : http://www.onlinewebfonts.com/icon -->
<!DOCTYPE svg PUBLIC "-//W3C//DTD SVG 1.1//EN" "http://www.w3.org/Graphics/SVG/1.1/DTD/svg11.dtd">
<svg version="1.1" xmlns="http://www.w3.org/2000/svg" xmlns:xlink="http://www.w3.org/1999/xlink" x="0px" y="0px" viewBox="0 0 1000 1000" enable-background="new 0 0 1000 1000" xml:space="preserve">
<metadata> Svg Vector Icons : http://www.onlinewebfonts.com/icon </metadata>
<g><g transform="matrix(1 0 0 -1 0 800)"><path d="M826.7,790c46.2,0,84.9-15.7,116.3-47s47-70.1,47-116.3V-26.7c0-46.2-15.7-84.9-47-116.3s-70.1-47-116.3-47H173.3c-46.2,0-84.9,15.7-116.3,47S10-72.8,10-26.7v653.3c0,46.2,15.7,84.9,47,116.3s70.1,47,116.3,47H826.7z M500,463.3c-46.2,0-84.9-15.7-116.3-47c-31.4-31.4-47-70.1-47-116.3c0-46.2,15.7-84.9,47-116.3c31.4-31.4,70.1-47,116.3-47c46.2,0,84.9,15.7,116.3,47c31.4,31.4,47,70.1,47,116.3c0,46.2-15.7,84.9-47,116.3C584.9,447.7,546.2,463.3,500,463.3z M706.5,571.8c0-19.2,6.1-34.8,18.3-47c12.2-12.2,27.9-18.3,47-18.3c18.3,0,33.8,6.8,46.4,20.3c12.6,13.5,18.9,28.5,18.9,45.1s-6.8,31.6-20.3,45.1c-13.5,13.5-28.5,20.3-45.1,20.3c-16.6,0-31.6-6.3-45.1-18.9S706.5,590.1,706.5,571.8z M826.7-81.5c16.6,0,29.8,5,39.9,15c10,10,15,23.3,15,39.9V300H771.8c0-76.7-26.1-141.1-78.4-193.4S576.7,28.2,500,28.2s-141.1,26.1-193.4,78.4S228.2,223.3,228.2,300H118.5V-26.7c0-16.6,5-29.8,15-39.9c10-10,23.3-15,39.9-15H826.7z"/></g></g>
</svg>