<?xml version="1.0" encoding="utf-8"?>
<svg version="1.1" x="0px" y="0px" viewBox="0 0 1000 1000" enable-background="new 0 0 1000 1000" xmlns="http://www.w3.org/2000/svg">
  <g>
    <g transform="translate(0.000000,511.000000) scale(0.100000,-0.100000)">
      <path d="M6855.1,4027.5c-99.7-153.4-199.4-266.6-517.9-583.1l-395.1-395.1L5760,3181.7c-168.8,122.7-189.9,132.3-281.9,134.3h-97.8l9.6-109.3c3.8-61.4,13.4-195.6,21.1-299.2l15.4-186L5221,2520c-111.2-111.2-212.9-201.4-224.4-201.4c-13.4,0-107.4,84.4-212.9,188l-189.9,186l24.9,287.7c13.4,159.2,19.2,293.4,15.3,303c-3.8,7.7-42.2,13.4-84.4,13.4c-65.2,0-107.4-21.1-266.6-134.3c-103.6-72.9-197.5-134.3-205.2-134.3c-9.6,0-193.7,178.4-410.4,398.9c-314.5,316.5-418.1,433.5-506.3,575.4c-61.4,95.9-115.1,176.5-122.7,176.5c-7.7,0-80.6-69-163-151.5L2725.7,3876l44.1-28.8c24.9-15.3,117-72.9,205.2-126.6c107.4-65.2,276.2-207.1,531.3-446.9c343.3-322.2,374-354.8,375.9-418.1c3.8-134.3,21.1-157.3,128.5-188c53.7-15.4,99.7-38.4,99.7-49.9c0-11.5-17.3-67.1-38.4-124.7c-32.6-84.4-34.5-107.4-15.3-132.3c13.4-17.3,117-138.1,232.1-268.5c113.2-132.3,205.2-245.5,205.2-253.2c0-7.7-201.4-203.3-446.9-437.3l-446.9-423.9l7.7-115.1c7.7-107.4,3.8-118.9-46-163c-30.7-26.9-63.3-49.9-71-49.9c-9.6,0-71,47.9-140,109.3c-165,145.8-235.9,176.4-364.4,151.5c-99.7-17.3-111.2-26.9-602.2-508.3l-500.6-491l67.1-333.7c59.5-283.9,65.2-339.5,42.2-364.4C1789.8-1026.4,180.6-2883,146-2919.5l-46-51.8l552.4-466.1c305-257,567.7-479.5,586.9-494.9c30.7-24.9,47.9-21.1,147.7,26.9c63.3,30.7,118.9,67.1,124.7,84.4c448.8,1147,911,2389.8,903.4,2418.6c-5.8,21.1-17.3,55.6-23,76.7c-9.6,34.5-1.9,38.4,63.3,38.4c126.6,0,155.4-19.2,291.5-189.9c130.4-163,132.3-166.9,241.7-519.8c59.5-195.6,111.2-356.7,115.1-360.6c3.8-3.8,454.6,166.9,466.1,176.5c1.9,3.8-61.4,189.9-140,416.2l-145.8,410.5l249.3,245.5c138.1,134.3,258.9,243.6,272.4,243.6c11.5,0,95.9-46,186-101.6c92.1-55.6,178.4-109.3,191.8-117c17.3-9.6,71,80.6,186,318.4c90.2,182.2,163,341.4,163,352.9c0,13.4-99.7,80.5-220.6,153.4c-211,126.6-224.4,138.1-326.1,289.6c-57.5,88.2-105.5,164.9-105.5,174.5c0,7.7,40.3,59.5,88.2,115.1c84.4,95.9,90.1,99.7,189.9,99.7h101.7l362.5,420c197.5,232.1,366.3,422,372.1,422c5.8,1.9,180.3-195.6,391.3-439.2l379.8-441.1h99.7c95.9,0,105.5-3.8,189.9-95.9c47.9-51.8,88.2-99.7,88.2-109.3c0-7.7-47.9-86.3-107.4-176.5c-105.5-159.2-115.1-168.8-326.1-295.4c-120.8-71-218.7-138.1-218.7-147.7c0-11.5,72.9-170.7,161.1-354.8l163-337.6l205.2,126.6l203.3,126.6l243.6-234c132.3-130.4,249.3-241.7,257-249.3c9.6-7.7-49.9-201.4-128.5-429.6c-80.5-230.2-143.9-420.1-141.9-422c9.6-5.7,163-65.2,324.1-124.7l143.8-53.7l113.2,362.5l111.3,362.5l136.2,166.9l138.1,168.8l109.3,9.6c59.5,5.7,109.3,5.7,109.3,1.9s-9.6-38.4-21.1-76.7c-21.1-72.9,30.7-216.7,868.9-2391.7c34.5-88.2,48-103.6,149.6-151.5l113.2-53.7l63.3,53.7c34.5,28.8,299.2,251.3,586.9,494.8c519.8,439.2,521.7,443.1,487.2,481.4c-21.1,23-435.4,502.5-924.5,1066.4c-487.2,563.9-903.4,1043.4-922.5,1066.4c-36.4,38.4-34.5,46,30.7,374l69,333.7l-496.7,491c-487.2,479.5-498.7,491-598.4,510.2c-134.3,26.9-230.2-13.4-381.7-157.3c-61.4-57.5-118.9-105.5-130.4-105.5c-9.6,0-42.2,24.9-71,55.6c-47.9,49.9-53.7,67.1-46,164.9l5.7,109.3l-383.6,366.3c-211,199.5-422,400.9-468,446.9l-84.4,82.5l228.2,264.7c124.7,145.8,239.7,278.1,251.3,295.4c19.2,23,17.2,49.9-13.5,128.5c-21.1,55.6-38.4,111.2-38.4,124.7c0,13.4,42.2,36.5,97.8,49.9c105.5,26.9,111.3,34.5,130.4,172.6c11.5,92.1,15.4,97.8,387.4,445c295.4,278.1,416.2,377.8,565.8,466.1c103.6,63.3,193.7,117,197.6,120.8c9.6,7.7-287.7,312.6-305,312.6C6981.8,4217.4,6922.3,4131.1,6855.1,4027.5z M5694.8,3028.2l90.1-40.3l-94-95.9c-51.8-53.7-95.9-84.4-97.8-71c-3.8,13.4-13.4,74.8-21.1,136.2C5552.9,3083.8,5556.7,3085.8,5694.8,3028.2z M4467.3,3014.8c-3.8-19.2-15.4-80.6-21.1-134.3c-7.7-55.6-19.2-101.6-26.8-101.6c-17.3,0-184.1,170.7-172.6,178.4c13.4,11.5,197.5,86.3,214.8,88.2C4471.1,3047.4,4473,3032.1,4467.3,3014.8z M3163,621.1c57.5-46,105.5-90.2,105.5-97.8c1.9-5.8-234-239.8-521.7-517.9L2223.2-499L2158-322.5L2094.7-148L2493.7,251c372.1,374,435.4,423.9,558.1,454.6C3055.6,707.5,3105.5,669.1,3163,621.1z M7087.3,632.7c24.9-9.6,222.5-197.6,441.1-418.1l397-398.9l-57.5-163c-30.7-88.2-61.4-164.9-67.1-170.7c-7.7-9.6-78.6,57.5-711.6,673.2L6742,492.6l107.4,88.2C6960.6,669.1,6981.8,674.8,7087.3,632.7z M3527.5-637.1c88.2-63.3,161.1-118.9,161.1-120.8c0-3.8-107.4-101.7-239.8-220.6c-157.3-140-255.1-212.9-283.9-212.9c-24.9,0-71,28.8-107.4,65.2c-49.9,51.8-61.4,76.7-55.6,128.5l5.8,65.2l111.2-5.7l109.3-7.7l-51.8,118.9L3124.7-708l97.8,94c55.6,51.8,109.3,94,120.8,94C3356.8-520.1,3439.2-571.9,3527.5-637.1z M6795.7-644.7c99.7-99.7,101.7-105.5,78.6-157.3c-15.3-28.8-38.4-82.5-53.7-118.9l-26.9-63.3l115.1,13.4l117,13.4v-74.8c0-59.5-13.4-88.2-65.2-138.1c-53.7-51.8-72.9-59.5-118.9-47.9c-51.8,13.4-487.2,389.4-491,423.9c-1.9,13.4,306.9,251.2,329.9,253.2C6686.4-539.2,6738.2-587.2,6795.7-644.7z" style="fill: rgb(120, 180, 173);"/>
    </g>
  </g>
</svg>