<?xml version="1.0" encoding="utf-8"?>
<svg version="1.1" x="0px" y="0px" viewBox="0 0 1000 1000" enable-background="new 0 0 1000 1000" xmlns="http://www.w3.org/2000/svg">
  <g>
    <g transform="translate(0.000000,512.000000) scale(0.100000,-0.100000)">
      <path d="M3232.1,4322.7l-1672.3-703l1.9-1088v-1088l-90-38.3c-193.5-82.4-300.7-239.4-300.7-438.7c0-143.7,42.1-241.4,145.6-337.1c101.5-97.7,182-130.3,321.8-130.3c149.4,0,247.1,46,350.5,159c218.4,241.4,126.4,614.9-182,747.1l-91.9,38.3v1038.2c0,978.8,1.9,1036.3,32.6,1026.7c19.2-5.7,737.5-304.6,1595.7-662.8c858.2-360.1,1578.4-651.3,1599.5-647.5c84.3,15.3,3534.2,1400.3,3520.8,1413.7c-19.2,15.3-3490.1,1400.3-3530.4,1407.9C4917.8,5021.9,4151.5,4707.7,3232.1,4322.7z" style="fill: rgb(120, 180, 173);"/>
      <path d="M5938.7,2171.6c-547.8-220.3-1001.8-400.3-1009.5-400.3s-436.7,176.2-953.9,392.7c-515.3,216.5-946.3,392.7-957.8,392.7c-61.3,0-252.9-528.7-298.8-827.5c-67-436.7,17.2-965.4,216.5-1365.8c153.2-304.6,452.1-653.2,733.7-850.5c819.9-576.6,1907.9-567,2710.5,24.9C7134.1,93.2,7480.8,1062.5,7249,1968.5c-72.8,287.3-222.2,609.2-281.6,605.3C6948.3,2573.8,6486.6,2391.8,5938.7,2171.6z" style="fill: rgb(120, 180, 173);"/>
      <path d="M5728-2146.1c-386.9-932.9-710.7-1695.3-718.3-1695.3c-7.7,0-325.6,752.8-708.8,1672.3c-383.1,917.6-697.3,1674.2-701.1,1678c-9.6,11.5-488.5-95.8-716.4-160.9c-643.6-187.7-1082.3-419.5-1409.8-745.1c-183.9-183.9-264.3-306.5-335.2-509.6c-44.1-124.5-46-130.3-51.7-1256.6c-3.8-752.8,0-1172.3,13.4-1245.1c28.7-153.2,101.5-252.9,229.9-318l105.4-53.6h3574.4h3574.4l105.3,53.6c67.1,34.5,122.6,80.5,160.9,134.1l57.5,84.3l5.7,1256.6c3.8,862-1.9,1291.1-17.2,1360c-36.4,174.3-157.1,388.9-318,559.3C8293-1027.4,7862-793.7,7279.6-623.2c-228,67-716.4,172.4-795,172.4C6436.8-450.8,6404.2-527.5,5728-2146.1z" style="fill: rgb(120, 180, 173);"/>
    </g>
  </g>
</svg>