<?xml version="1.0" encoding="utf-8"?>
<svg version="1.1" x="0px" y="0px" viewBox="0 0 1000 1000" enable-background="new 0 0 1000 1000" xmlns="http://www.w3.org/2000/svg">
  <g>
    <g>
      <path d="M231.6,288.2v161.2c70.9-35.1,167.8-72.8,257-72.8s186.1,37.7,257,72.8V288.2l24.7-111.7h35.8v-52.4H675V89.9H377.1V49.2h-39.9v40.7h-35v34.2H171.1v52.4h35.8L231.6,288.2z M690.7,343.5h-74.5v-27.7h74.5V343.5z M592.1,202.6h98.3l-12.2,59.2h-86.1V202.6z M580.8,343.5h-74.5v-27.7h74.5V343.5z M445.6,202.6h86.1v59.2h-86.1V202.6z M396.4,315.8h74.5v27.7h-74.5V315.8z M385.1,202.6v59.2H299l-9.8-59.2H385.1z M286.5,315.8H361v27.7h-74.5V315.8z" style="fill: rgb(120, 180, 173);"/>
      <path d="M225.6,714.5c39.1,17.7,87.2,39.6,123.5,154.2c9.5,3.4,19.6,5.3,29.1,5.3c6.4,0,12.4-0.8,17.8-2.5c0.1,0,0.3-0.1,0.4-0.1c12.4-3.6,21.1-7.6,28.2-13c9.7-7.3,17.5-16.1,23.2-26.1l17.9-31.3l4.5-7.9c3.9-6.8,11.1-11,19-11.1c0,0,0.1,0,0.1,0c7.8,0,15,4.1,19,10.9l5.7,9.8c2.2,3.8,4.4,7.7,6.5,11.5c7.7,13.8,15.7,28.1,25.8,37.2c0.1,0.1,0.1,0.1,0.2,0.2c14.3,13.3,34,21.5,51.4,21.5c0.4,0,0.7,0,1.1,0c10.6-0.2,20.3-1.8,29.2-4.8c36.3-114.2,84.4-136,123.4-153.8c42.3-19.2,73.1-33.2,74.2-185.4C791,506.9,626.4,406.6,488.6,406.6S186.2,506.9,151.5,529.1C152.5,681.4,183.3,695.3,225.6,714.5z M678.4,622.3c2.7-11.4,12-20.2,20.7-19.5c8.8,0.7,13.7,10.5,11,21.9c-2.7,11.4-12,20.2-20.7,19.5C680.6,643.6,675.7,633.8,678.4,622.3z M622.1,601.7c3.3-14.1,14.8-24.9,25.6-24.1c10.8,0.8,16.9,13,13.6,27.1c-3.3,14.1-14.8,24.9-25.6,24.1C624.9,628,618.8,615.8,622.1,601.7z M552.9,575.7c4.1-17.5,18.3-30.8,31.6-29.8c13.4,1,20.8,16,16.7,33.5c-4.1,17.5-18.3,30.8-31.6,29.8C556.3,608.1,548.8,593.2,552.9,575.7z M392.7,545.9c13.4-1,27.5,12.3,31.6,29.8c4.1,17.5-3.4,32.4-16.7,33.5c-13.4,1-27.5-12.3-31.6-29.8C371.9,561.9,379.4,547,392.7,545.9z M329.5,577.6c10.8-0.8,22.3,10,25.6,24.1c3.3,14.1-2.7,26.3-13.6,27.1c-10.8,0.8-22.3-10-25.6-24.1C312.6,590.6,318.7,578.4,329.5,577.6z M278.1,602.8c8.8-0.7,18,8.1,20.7,19.5c2.7,11.5-2.2,21.3-11,21.9c-8.8,0.7-18-8.1-20.7-19.5C264.4,613.3,269.3,603.5,278.1,602.8z" style="fill: rgb(120, 180, 173);"/>
      <path d="M986.4,928.4c-25.8-5-50.1-16.1-68.6-35.2c-9-9.3-15.9-19.9-23-30.6c-10.1,11-19.7,21.8-32.1,30.4c-11.9,8.3-25.6,14.1-39.8,17.1c-8.8,1.9-21.3,3.7-39,1.4c-8.1-1-16-3.1-23.6-6.1c-15.8-6.1-28.7-15.5-40.5-27.4c-8.1-8.8-15.1-18.8-22.5-28.2c-11.6,11.9-22.7,25.4-36.5,34.8c-18.5,12.7-39.2,18.3-61.3,18.7c-0.5,0-1,0-1.5,0c-24.1,0-48.8-11.2-66.3-27.3c-15.9-14.4-25.8-35.6-36.6-53.9c-1.9-3.3-3.8-6.5-5.7-9.8c-7.5,13.1-14.9,26.1-22.4,39.2c-7.4,12.9-17.2,23.7-29,32.7c-10.7,8.1-22.6,12.9-35.3,16.6c-7.8,2.4-16,3.5-24.3,3.5c-15.9,0-32.1-4-45.9-10.4c-19.8-9.2-34.4-25.8-49.6-40.9c-10.7,13.7-20.8,28.4-34.9,38.9c-18.9,13.9-42.1,22.4-65.6,22.4c-2.7,0-5.5-0.1-8.2-0.4c-13.9-1.2-26.6-4.5-39.4-9.7c-11.4-4.7-21.1-12.3-30.7-19.9c-1.6-1.3-7.4-5.7-7.4-5.7s-9.2,10.5-13.8,14.8c-7.4,6.8-14.7,12.9-23.3,18.2c-7,4.1-14.1,7.6-21.7,10.5c-9,3.4-18.3,5.3-27.7,6.9v0.6c3.1,0.1,6.1,0.2,9.1,0.2c8.8,0,17.5-0.6,26.4-2.4c10.9-2.1,21.7-6.5,31.5-11.7c4.7-2.5,9-5.2,13.4-8.2c0.9-0.6,1.9-1.3,2.8-1.9c1.1-0.8,3.1-2.3,3.1-2.3s5.2,4.8,7.4,6.8c8,7.1,16.6,13,25.8,18.4c17.6,10.2,37.5,14.3,57.5,16.2c3.2,0.3,6.3,0.4,9.5,0.4c24.8,0,50.3-8.5,70.9-21.2c4.3-2.7,8.5-5.6,12.5-8.8c1-0.8,2-1.6,3-2.4c0.7-0.6,0.9-0.9,1-0.9c0.2,0,0.4,0.3,1,0.8c1.3,1.2,2.7,2.3,4,3.4c4.8,4,9.8,7.7,15.1,11.1c15.4,9.8,32.3,16.4,50.2,20.1c9,1.8,18.6,2.8,28.3,2.8c13.5,0,27.2-1.9,39.5-5.8c25.5-8,49.6-21.5,67.5-41.7c26.4,30.1,67.8,48.2,108.4,48.2c9.2,0,18.4-0.9,27.4-2.9c18.8-4.1,36.5-10.9,52.7-21.4c5.1-3.3,9.9-7,14.5-11c1.2-1,2.3-2,3.4-3c1.7,1.4,3.4,2.8,5.1,4.1c4.3,3.4,8.9,6.5,13.5,9.3c22.1,13.4,47.6,20.5,73.2,20.5c8.8,0,17.7-0.8,26.4-2.5c31.6-6.2,60.6-23.5,80.4-49c14.3,14,32.1,24.1,51.2,30.1c11.3,3.6,23,5,34.7,5c3.2,0,6.4-0.1,9.5-0.3v-0.7C988.8,928.8,987.6,928.6,986.4,928.4z" style="fill: rgb(120, 180, 173);"/>
    </g>
    <g/>
    <g/>
    <g/>
    <g/>
    <g/>
    <g/>
    <g/>
    <g/>
    <g/>
    <g/>
    <g/>
    <g/>
    <g/>
    <g/>
    <g/>
  </g>
</svg>